<svg width="629" height="451" viewBox="0 0 629 451" fill="none" xmlns="http://www.w3.org/2000/svg">
<path fill-rule="evenodd" clip-rule="evenodd" d="M337.718 444.831C340.32 450.091 347.132 452.442 352.933 450.084C389.532 435.201 421.667 412.506 446.599 384.117C454.277 386.257 462.321 387.363 470.524 387.363C515.433 387.363 551.838 354.354 551.838 313.635C551.838 294.565 543.782 276.765 530.045 263.391C588.298 244.39 628.95 193.859 628.95 135.693C628.95 60.7518 561.947 0 479.295 0C437.221 0 397.986 15.8519 369.981 43.0155C333.659 25.1142 292.848 15.574 250.52 15.574C112.16 15.574 0 117.273 0 242.73C0.000104591 245.709 0.0634842 248.68 0.189843 251.645C0.435405 257.405 5.78466 261.894 12.1377 261.671C18.4908 261.449 23.4419 256.599 23.1964 250.838C23.0815 248.142 23.0238 245.439 23.0237 242.73C23.0237 128.803 124.876 36.4499 250.52 36.4499C291.894 36.4499 331.623 46.4693 366.417 65.185C367.362 65.7134 368.367 66.1046 369.401 66.3613C371.059 66.7751 372.774 66.8376 374.421 66.5772C376.092 66.3145 377.704 65.7181 379.125 64.8C379.988 64.244 380.775 63.5735 381.457 62.7952C405.375 36.4367 440.919 20.8758 479.295 20.8758C549.231 20.8758 605.926 72.2812 605.926 135.693C605.926 191.056 562.389 238.255 503.128 248.482C492.637 250.292 490.283 262.955 499.54 267.783C517.511 277.157 528.815 294.497 528.815 313.635C528.815 342.824 502.717 366.487 470.524 366.487C462.391 366.487 454.512 364.982 447.237 362.103C442.323 360.159 436.579 361.548 433.385 365.453C410.128 393.894 379.141 416.547 343.511 431.036C337.71 433.394 335.117 439.571 337.718 444.831ZM381.457 62.7952C381.777 62.429 382.075 62.039 382.345 61.6259C385.593 56.6702 383.796 50.2654 378.33 47.3204C375.575 45.8357 372.792 44.4006 369.981 43.0155C367.766 45.1644 365.621 47.384 363.55 49.6723C359.517 54.1287 360.232 60.7058 365.147 64.3625C365.555 64.6663 365.98 64.9404 366.417 65.185C366.467 65.2121 366.518 65.2392 366.568 65.2663C367.476 65.7558 368.429 66.1189 369.401 66.3613C371.046 66.7699 372.762 66.838 374.421 66.5772C376.103 66.3112 377.715 65.7087 379.125 64.8C379.937 64.2757 380.686 63.6464 381.349 62.9145C381.385 62.8747 381.421 62.8349 381.457 62.7952Z" fill="#FFDACF"/>
</svg>
