<svg width="495" height="520" viewBox="0 0 495 520" fill="none" xmlns="http://www.w3.org/2000/svg">
<path fill-rule="evenodd" clip-rule="evenodd" d="M495 260C495 403.594 362.657 520 199.403 520C206.563 520 212.368 514.894 212.368 508.596C212.368 502.299 206.563 497.193 199.403 497.193C348.336 497.193 469.07 390.998 469.07 260C469.07 129.002 348.336 22.807 199.403 22.807C156.073 22.807 114.237 31.7955 76.5425 48.7955C70.1709 51.669 62.3574 49.4553 59.0905 43.8511C55.8236 38.2468 58.3403 31.3742 64.7119 28.5007C106.047 9.85909 151.935 0 199.403 0C362.657 0 495 116.406 495 260ZM199.403 497.193C133.409 497.193 71.1335 476.282 22.3857 438.94C16.9861 434.804 8.79672 435.301 4.09424 440.051C-0.608249 444.8 -0.0431196 452.003 5.35649 456.139C58.7811 497.064 127.089 520 199.403 520C192.243 520 186.438 514.894 186.438 508.596C186.438 502.299 192.243 497.193 199.403 497.193Z" fill="#90F1FF"/>
</svg>
